# xmcd CD database file
#
# Track frame offsets:
#	187
#	13750
#	26052
#	40217
#	53472
#	68475
#	81367
#	96105
#	107465
#	118267
#	134832
#	147442
#	157130
#	176335
#	190777
#	206505
#	222020
#	233172
#	248352
#	260342
#	269960
#	281420
#
# Disc length: 3902 seconds
#
# Revision: 1
# Processed by: cddbd v1.5PL3 Copyright (c) Steve Scherf et al.
# Submitted via: CDex 1.51
#
DISCID=3e0f3c16
DTITLE=Peggy Lee - Peggy Lee Best One
DYEAR=1995
DGENRE=Jazz
TTITLE0=Johnny Guitar
TTITLE1=Autumn In Rome
TTITLE2=Black Coffee
TTITLE3=What's New
TTITLE4=Mr Wonderful
TTITLE5=There's A Small Hotel
TTITLE6=You Go To My Head
TTITLE7=I've Got You Under My Skin
TTITLE8=It's All Right Whith Me
TTITLE9=Bye Bye Black Bird
TTITLE10=Love Letters
TTITLE11=My Heart Belongs To daddy
TTITLE12=La La Lu
TTITLE13=Bella Notte
TTITLE14=Somebody Loves Me
TTITLE15=Apples,Peaches&Cherries 
TTITLE16=The Siamese cat song
TTITLE17=Sans Souci
TTITLE18=Let Me Go,Lover!
TTITLE19=Love Me Or Leave Me
TTITLE20=Swing Low Sweet Chariot
TTITLE21=I Don't What To Play In Your Yard
EXTD=YEAR: 1995
EXTT0=
EXTT1=
EXTT2=
EXTT3=
EXTT4=
EXTT5=
EXTT6=
EXTT7=
EXTT8=
EXTT9=
EXTT10=
EXTT11=
EXTT12=
EXTT13=
EXTT14=
EXTT15=
EXTT16=
EXTT17=
EXTT18=
EXTT19=
EXTT20=
EXTT21=
PLAYORDER=
